<svg width="430" height="138" viewBox="0 0 430 138" fill="none" xmlns="http://www.w3.org/2000/svg">
  <defs>
    <linearGradient id="gold" x1="16" y1="16" x2="114" y2="114" gradientUnits="userSpaceOnUse">
      <stop stop-color="#F7D98A"/>
      <stop offset="0.55" stop-color="#D6A338"/>
      <stop offset="1" stop-color="#B98317"/>
    </linearGradient>
    <linearGradient id="goldText" x1="150" y1="84" x2="410" y2="120" gradientUnits="userSpaceOnUse">
      <stop stop-color="#D9AA45"/>
      <stop offset="1" stop-color="#BC8A2B"/>
    </linearGradient>
  </defs>

  <circle cx="69" cy="66" r="57" fill="#121417"/>
  <circle cx="69" cy="66" r="51" stroke="url(#gold)" stroke-width="5"/>

  <path d="M58 37L61 44H69L63 48L66 55L58 50L50 55L53 48L47 44H55L58 37Z" fill="#E1AF45"/>
  <circle cx="45" cy="45" r="3.2" fill="#D6A338"/>
  <circle cx="81" cy="45" r="3.2" fill="#D6A338"/>

  <circle cx="51" cy="62" r="10" fill="#E5C06E"/>
  <circle cx="87" cy="62" r="10" fill="#E5C06E"/>
  <path d="M36 88C39 78 45 73 53 73C61 73 67 78 69 88" stroke="#E5C06E" stroke-width="7" stroke-linecap="round"/>
  <path d="M69 88C71 78 77 73 85 73C93 73 99 78 102 88" stroke="#DAB45C" stroke-width="7" stroke-linecap="round"/>

  <circle cx="63" cy="78" r="4.6" fill="#E1AF45"/>
  <circle cx="75" cy="78" r="4.6" fill="#E1AF45"/>
  <path d="M67 79H71" stroke="#F3D58E" stroke-width="2.2" stroke-linecap="round"/>

  <text x="140" y="84" fill="#14181E" font-family="Segoe UI, Arial Black, Arial, sans-serif" font-size="66" font-weight="800" letter-spacing="1.8">STAN</text>
  <text x="222" y="132" fill="url(#goldText)" font-family="Segoe UI, Arial Black, Arial, sans-serif" font-size="66" font-style="italic" font-weight="800" letter-spacing="1.6">BROS</text>
</svg>
